<svg xmlns="http://www.w3.org/2000/svg" viewBox="0 0 400 220" role="img">
  <rect width="400" height="220" rx="12" fill="#F5EEE1"/>
  <ellipse cx="200" cy="168" rx="160" ry="30" fill="#D9CBAF"/>
  <ellipse cx="200" cy="164" rx="150" ry="24" fill="#B8B0A0"/>
  <g stroke-linecap="round">
    <path d="M120 150v-44M120 106c-10 4-14 14-12 22M120 106c10 4 14 14 12 22" stroke="#7A8F5A" stroke-width="4" fill="none"/>
    <circle cx="120" cy="100" r="8" fill="#8F7AB5"/>
    <path d="M170 152v-58" stroke="#7A8F5A" stroke-width="4"/>
    <ellipse cx="170" cy="88" rx="10" ry="14" fill="#B49BD6"/>
    <path d="M230 150v-40c0-10 8-16 16-16M230 126c-8 0-14-6-14-12" stroke="#8FA060" stroke-width="4" fill="none"/>
    <path d="M280 152v-50M280 102l-10 14M280 102l10 14M280 118l-8 12M280 118l8 12" stroke="#C9B36A" stroke-width="3.6" fill="none"/>
  </g>
  <circle cx="150" cy="160" r="5" fill="#8C8478"/>
  <circle cx="205" cy="166" r="6" fill="#9C948a"/>
  <circle cx="252" cy="160" r="4.6" fill="#8C8478"/>
  <circle cx="330" cy="52" r="20" fill="#E8A33D"/>
  <path d="M330 24v-8M330 88v-8M358 52h8M294 52h8M350 32l6-6M304 78l6-6M350 72l6 6M304 26l6 6" stroke="#E8A33D" stroke-width="4" stroke-linecap="round"/>
</svg>
