<svg xmlns="http://www.w3.org/2000/svg" viewBox="0 0 400 220" role="img">
  <rect width="400" height="220" rx="12" fill="#EDEAF3"/>
  <rect x="80" y="86" width="150" height="84" rx="10" fill="#24312C"/>
  <rect x="80" y="76" width="150" height="20" rx="6" fill="#39493F"/>
  <rect x="98" y="60" width="22" height="18" rx="4" fill="#B23A3A"/>
  <rect x="190" y="60" width="22" height="18" rx="4" fill="#39493F"/>
  <text x="155" y="136" font-family="Arial, sans-serif" font-size="22" font-weight="bold" fill="#E8A33D" text-anchor="middle">12&#8201;V</text>
  <rect x="264" y="84" width="66" height="96" rx="10" fill="#FFFFFF" stroke="#CFC8DE"/>
  <rect x="276" y="96" width="42" height="26" rx="4" fill="#1E4F46"/>
  <text x="297" y="114" font-family="Arial, sans-serif" font-size="12" font-weight="bold" fill="#9FE8C4" text-anchor="middle">12.6</text>
  <circle cx="297" cy="150" r="14" fill="#EDEAF3" stroke="#CFC8DE"/>
  <path d="M297 150l8-8" stroke="#6B4E71" stroke-width="3" stroke-linecap="round"/>
  <path d="M236 100c14 0 20 8 28 8M236 160c14 0 20-8 28-8" stroke="#B23A3A" stroke-width="4" fill="none" stroke-linecap="round"/>
  <circle cx="58" cy="56" r="9" fill="#6B4E71" opacity="0.35"/>
</svg>
